<svg 
 xmlns="http://www.w3.org/2000/svg"
 xmlns:xlink="http://www.w3.org/1999/xlink"
 width="31px" height="31px">
<path fill-rule="evenodd"  fill="rgb(255, 255, 255)"
 d="M15.951,24.295 C15.951,27.419 12.988,28.490 10.328,28.490 C7.471,28.490 3.615,27.169 3.615,23.741 C3.615,20.028 7.971,19.099 10.899,19.099 C11.203,19.099 11.488,19.099 11.792,19.135 C13.613,20.403 15.951,21.795 15.951,24.295 ZM13.809,8.905 C13.809,11.084 12.970,12.851 10.524,12.851 C7.346,12.851 5.561,8.602 5.561,5.889 C5.561,3.781 6.704,1.711 9.042,1.711 C12.345,1.711 13.809,6.192 13.809,8.905 ZM11.470,0.425 C10.346,0.425 9.221,0.550 8.132,0.782 C4.883,1.496 2.258,4.389 2.258,7.780 C2.258,11.369 5.258,13.922 8.721,13.922 C9.132,13.922 9.542,13.886 9.971,13.833 C9.792,14.386 9.578,14.779 9.578,15.368 C9.578,16.368 10.131,17.261 10.721,18.028 C7.525,18.117 2.562,18.938 0.973,22.152 C0.598,22.902 0.312,23.723 0.312,24.562 C0.312,28.704 5.133,30.132 8.471,30.132 C11.113,30.132 13.916,29.561 15.969,27.794 C17.487,26.472 18.469,24.812 18.469,22.759 C18.469,17.761 13.113,16.850 13.113,14.547 C13.113,12.191 17.112,11.834 17.112,7.102 C17.112,5.103 16.219,2.942 14.452,1.835 L16.862,1.835 L19.272,0.425 L11.470,0.425 ZM30.019,4.996 L25.449,4.996 L25.449,0.425 L23.164,0.425 L23.164,4.996 L18.594,4.996 L18.594,7.281 L23.164,7.281 L23.164,11.851 L25.449,11.851 L25.449,7.281 L30.019,7.281 L30.019,4.996 Z"/>
</svg>